<svg height="512pt" viewBox="0 -26 512 512" width="512pt" xmlns="http://www.w3.org/2000/svg"><path d="m318 380c-5.519531 0-11 4.480469-11 10s5.480469 10 11 10 10-4.480469 10-10-4.480469-10-10-10zm0 0"/><path d="m20 189.503906v260.496094c0 5.523438 4.476562 10 10 10h452c5.523438 0 10-4.476562 10-10v-260.476562c12.199219-9.226563 20-23.507813 20-39.523438v-120c0-16.542969-13.457031-30-30-30h-452c-16.542969 0-30 13.457031-30 30v120c0 15.417969 7.542969 30.0625 20 39.503906zm441 10.496094c3.710938 0 7.398438-.414062 11-1.214844v61.214844h-104v-30c0-5.523438-4.476562-10-10-10h-205c-5.523438 0-10 4.476562-10 10v30h-103v-61.214844c3.605469.800782 7.292969 1.214844 11 1.214844 16.25 0 31.28125-7.667969 41-20.472656 9.683594 12.761718 24.695312 20.472656 41 20.472656 16.273438 0 31.308594-7.695312 41.003906-20.46875 9.699219 12.78125 24.71875 20.46875 40.996094 20.46875 16.273438 0 31.308594-7.695312 41.003906-20.46875 9.699219 12.78125 24.71875 20.46875 40.996094 20.46875 16.273438 0 31.308594-7.695312 41.003906-20.46875 9.699219 12.78125 24.71875 20.46875 40.996094 20.46875 16.335938 0 31.347656-7.746094 41-20.464844 9.675781 12.746094 24.699219 20.464844 41 20.464844zm-421 80h103v100h-103zm123-40h83v200h-83zm103 0h82v200h-82zm102 40h104v100h-104zm42-130c0 16.261719-14.195312 30-31 30-16.421875 0-31-13.316406-31-30v-30h62zm-82 0c0 16.261719-14.195312 30-31 30-16.421875 0-31-13.316406-31-30v-30h62zm-62-50v-80h62v80zm-20 0h-62v-80h62zm0 20v30c0 16.261719-14.195312 30-31 30-16.421875 0-31-13.316406-31-30v-30zm-82 30c0 16.261719-14.195312 30-31 30-16.421875 0-31-13.316406-31-30v-30h62zm-82 0c0 16.636719-14.53125 30-31 30-16.691406 0-31-13.597656-31-30v-30h62zm-42 250h103v40h-103zm328 40v-40h104v40zm93-260c-16.804688 0-31-13.738281-31-30v-30h62v30c0 16.628906-14.507812 30-31 30zm21-160c5.515625 0 10 4.484375 10 10v70h-62v-80zm-72 80h-62v-80h62zm-246-80v80h-62v-80zm-134 0h52v80h-62v-70c0-5.515625 4.484375-10 10-10zm0 0"/><path d="m318 300c-5.523438 0-10 4.476562-10 10v40c0 5.523438 4.476562 10 10 10s10-4.476562 10-10v-40c0-5.523438-4.476562-10-10-10zm0 0"/></svg>